<?xml version="1.0" encoding="utf-8"?>
<!-- Generator: Adobe Illustrator 18.1.1, SVG Export Plug-In . SVG Version: 6.00 Build 0)  -->
<!DOCTYPE svg PUBLIC "-//W3C//DTD SVG 1.1//EN" "http://www.w3.org/Graphics/SVG/1.1/DTD/svg11.dtd">
<svg version="1.1" id="Layer_1" xmlns="http://www.w3.org/2000/svg" xmlns:xlink="http://www.w3.org/1999/xlink" x="0px" y="0px"
	 width="612px" height="792px" viewBox="0 0 612 792" style="enable-background:new 0 0 612 792;" xml:space="preserve">
<style type="text/css">
	.st0{fill:url(#SVGID_1_);}
	.st1{fill:#3F7B3C;}
	.st2{fill:#FFFFFF;}
</style>
<g>
	<linearGradient id="SVGID_1_" gradientUnits="userSpaceOnUse" x1="306.2805" y1="336.105" x2="306.2805" y2="458.0384">
		<stop  offset="0" style="stop-color:#99C44D"/>
		<stop  offset="1" style="stop-color:#408F43"/>
	</linearGradient>
	<path class="st0" d="M348.013,376.857c0-22.507-18.685-40.752-41.733-40.752c-23.048,0-41.733,18.245-41.733,40.752
		c0,21.529,41.859,81.181,41.859,81.181S348.013,398.29,348.013,376.857z"/>
</g>
<ellipse class="st1" cx="306.281" cy="375.862" rx="31.294" ry="30.559"/>
<g>
	<path class="st2" d="M288.192,369.27v17.8c0,1.4,1.14,2.547,2.547,2.547h2.208v-22.893h-2.208
		C289.332,366.724,288.192,367.864,288.192,369.27z"/>
	<path class="st2" d="M321.822,366.724h-2.211v22.893h2.211c1.407,0,2.547-1.146,2.547-2.547v-17.8
		C324.369,367.864,323.229,366.724,321.822,366.724z"/>
	<path class="st2" d="M312.714,363.428c0-0.729-0.531-1.322-1.185-1.322h-10.496c-0.655,0-1.189,0.593-1.189,1.322v3.296h-4.647
		v22.893h22.167v-22.893h-4.65V363.428z M301.082,364.796c0-0.515,0.371-0.931,0.834-0.931h8.73c0.459,0,0.834,0.417,0.834,0.931
		v1.928h-10.398V364.796z"/>
</g>
</svg>
